<svg width="24" height="24" viewBox="0 0 24 24" fill="none" xmlns="http://www.w3.org/2000/svg">
<path fill-rule="evenodd" clip-rule="evenodd" d="M9.92792 11.2706C10.5382 11.0022 11.0684 10.5646 11.4627 10.0041C11.825 9.40883 12.0051 8.71012 11.9783 8.00297C12.0018 7.3581 11.8827 6.71631 11.6305 6.12849C11.4187 5.61924 11.0786 5.18116 10.6473 4.86196C10.1901 4.53009 9.67086 4.30552 9.12457 4.20336C8.47808 4.06013 7.81868 3.99218 7.15817 4.00071H0.342857C0.153503 4.00071 0 4.15422 0 4.34357V19.5909C0 19.7802 0.153502 19.9337 0.342857 19.9337H7.31405C7.98153 19.9342 8.64635 19.8449 9.29244 19.6678C9.90483 19.5004 10.485 19.2219 11.007 18.8445C11.5127 18.4743 11.9245 17.9785 12.2061 17.4007C12.5177 16.7545 12.6703 16.0358 12.6497 15.3109C12.6724 14.4126 12.4339 13.5285 11.9663 12.7778C11.4634 12.0229 10.7175 11.4871 9.86797 11.2706H9.92792ZM3.48569 6.57143C3.35945 6.57143 3.25711 6.67376 3.25711 6.8V10.3429C3.25711 10.4691 3.35945 10.5714 3.48569 10.5714H6.68569C7.79026 10.5714 8.68569 9.676 8.68569 8.57143C8.68569 7.46686 7.79026 6.57143 6.68569 6.57143H3.48569ZM3.25711 12.8C3.25711 12.6738 3.35945 12.5714 3.48569 12.5714H6.82854C8.16981 12.5714 9.25711 13.6587 9.25711 15C9.25711 16.3413 8.16981 17.4286 6.82854 17.4286H3.48569C3.35945 17.4286 3.25711 17.3262 3.25711 17.2V12.8Z" fill="white"/>
<path d="M15.9302 4.8113H21.3281C21.5156 4.8113 21.6684 4.96201 21.6709 5.14955L21.6857 6.24965C21.6882 6.44079 21.534 6.59711 21.3429 6.59711H15.9302C15.7408 6.59711 15.5873 6.44361 15.5873 6.25426V5.15415C15.5873 4.9648 15.7408 4.8113 15.9302 4.8113Z" fill="white"/>
<path fill-rule="evenodd" clip-rule="evenodd" d="M18.8247 17.5653C19.3776 17.5832 19.9222 17.4195 20.3834 17.0967C20.6804 16.899 20.9169 16.6166 21.0667 16.2836C21.1063 16.1955 21.1913 16.1341 21.288 16.1341H23.4834C23.6323 16.1341 23.7415 16.2743 23.6976 16.4165C23.3629 17.5012 22.7066 18.4467 21.8222 19.1105C20.8715 19.7256 19.7712 20.0338 18.6568 19.9971C17.8626 20.0114 17.073 19.8652 16.3307 19.5664C15.665 19.2876 15.0668 18.8548 14.5801 18.2999C14.1097 17.7347 13.751 17.0758 13.525 16.3621C13.2589 15.5739 13.129 14.7417 13.1413 13.905C13.134 13.0801 13.268 12.2605 13.537 11.4859C13.7876 10.7685 14.1753 10.1132 14.6761 9.56081C15.1782 9.01928 15.7774 8.58873 16.4386 8.29427C17.1608 7.97895 17.9354 7.81961 18.7168 7.82565C19.5476 7.8121 20.3696 8.00745 21.1148 8.39559C21.7846 8.76405 22.3667 9.288 22.8174 9.9281C23.2652 10.588 23.5906 11.3315 23.7766 12.1192C23.9689 12.9472 24.0377 13.8019 23.9805 14.6523H16.0429C16.0078 15.469 16.2744 16.2682 16.7863 16.8814C17.0632 17.1374 17.3872 17.3303 17.738 17.448C18.0887 17.5657 18.4587 17.6056 18.8247 17.5653ZM16.1143 12.4558C16.1143 12.5197 16.166 12.5714 16.2299 12.5714H20.8558C20.9196 12.5714 20.9714 12.5197 20.9714 12.4558C20.9714 11.1784 19.9359 10.1429 18.6585 10.1429H18.4272C17.1498 10.1429 16.1143 11.1784 16.1143 12.4558Z" fill="white"/>
</svg>
