<svg width="24" height="24" viewBox="0 0 24 24" fill="none" xmlns="http://www.w3.org/2000/svg">
<path d="M23.9768 4.74046C24.0481 4.64107 23.9428 4.51276 23.8287 4.55696C23.0182 4.87113 22.1711 5.08309 21.3071 5.18755C22.2692 4.61279 23.0116 3.73785 23.4232 2.702C23.4652 2.59648 23.3499 2.50225 23.2505 2.55714C22.3564 3.05096 21.392 3.40655 20.3903 3.61134C20.3483 3.61991 20.3051 3.60563 20.2757 3.57457C19.5239 2.78134 18.5344 2.2532 17.4556 2.07069C16.3542 1.88435 15.222 2.06885 14.2368 2.59527C13.2515 3.12168 12.4688 3.96023 12.0115 4.9794C11.5766 5.94844 11.4593 7.02865 11.6738 8.06605C11.6904 8.14655 11.6274 8.22254 11.5454 8.21745C9.5963 8.09639 7.69196 7.57797 5.94966 6.69342C4.21179 5.81112 2.67286 4.58369 1.42659 3.08683C1.37128 3.0204 1.26645 3.029 1.22615 3.10547C0.838357 3.84135 0.635316 4.66155 0.635868 5.49516C0.634293 6.32493 0.837925 7.14223 1.22863 7.87427C1.61934 8.60631 2.185 9.23038 2.87525 9.69092C2.14324 9.671 1.42549 9.49003 0.772751 9.16192C0.68863 9.11964 0.587726 9.17984 0.592101 9.27389C0.643002 10.368 1.04468 11.4665 1.73995 12.3092C2.47983 13.2061 3.50677 13.8198 4.64706 14.0466C4.20812 14.1802 3.75239 14.2506 3.29359 14.2558C3.04389 14.2529 2.79467 14.2345 2.54738 14.2007C2.45569 14.1881 2.38082 14.2752 2.41292 14.362C2.75303 15.2817 3.35388 16.0843 4.14391 16.6701C4.98854 17.2964 6.0074 17.6439 7.05871 17.6641C5.28345 19.061 3.09166 19.8233 0.832736 19.8296C0.600624 19.8304 0.368615 19.8229 0.137152 19.8071C0.00671708 19.7982 -0.0532723 19.972 0.0591586 20.0387C2.26011 21.3449 4.77575 22.0352 7.3417 22.0321C9.23618 22.0518 11.1156 21.6938 12.8702 20.979C14.6247 20.2642 16.2193 19.2069 17.5607 17.869C18.9021 16.531 19.9634 14.9392 20.6827 13.1864C21.402 11.4337 21.7648 9.55523 21.75 7.66071V7.07031C21.75 7.03147 21.7684 6.99494 21.7994 6.97153C22.634 6.34137 23.3679 5.58904 23.9768 4.74046Z" fill="white"/>
</svg>
